Coordinates
version=1
nRows=9
nColumns=24
inDegrees=yes

Units are S.I. units (second, meters, Newtons, ...)
Angles are in degrees.

endheader
time	pelvis_tilt	pelvis_list	pelvis_rotation	pelvis_tx	pelvis_ty	pelvis_tz	hip_flexion_r	hip_adduction_r	hip_rotation_r	knee_angle_r	ankle_angle_r	subtalar_angle_r	mtp_angle_r	hip_flexion_l	hip_adduction_l	hip_rotation_l	knee_angle_l	ankle_angle_l	subtalar_angle_l	mtp_angle_l	lumbar_extension	lumbar_bending	lumbar_rotation
      1.41633333	     -0.76450083	     -4.26923697	    -10.41517893	      0.94975460	      0.99108471	      0.29593455	    -15.32188774	      7.77836713	     12.28585190	    -15.64451163	     19.74703862	      0.61758519	      2.56152719	     30.73629470	     -7.44817041	     -8.07884613	     -1.23526239	     11.13439195	     -5.52864748	     -2.57990458	      1.00277841	      2.49847103	      8.62604134
      1.42050000	     -0.80585942	     -4.14146295	    -10.54864058	      0.95551698	      0.99039908	      0.29577997	    -15.49540217	      7.55049977	     12.30648157	    -15.83482313	     19.61800770	      0.66185302	      2.56380439	     30.69285925	     -7.34085587	     -7.71688024	     -1.75584913	     11.32186296	     -6.15090977	     -2.52624336	      1.13285280	      2.36063246	      8.91875698
      1.42466667	     -0.83385855	     -3.99225465	    -10.68789740	      0.96137807	      0.98974180	      0.29563091	    -15.68407871	      7.29353926	     12.33728018	    -16.02156979	     19.47671899	      0.68925947	      2.56731265	     30.64851615	     -7.21978974	     -7.54986009	     -2.33062757	     11.66857057	     -6.41145941	     -2.50535310	      1.25898127	      2.18465244	      8.95578234
      1.42883333	     -0.87309789	     -3.86389602	    -10.79086984	      0.96726762	      0.98905156	      0.29541412	    -15.85195550	      7.06509860	     12.28960129	    -16.22698334	     19.33170028	      0.77051311	      2.62031489	     30.58469345	     -7.08697428	     -7.18116594	     -2.83388442	     11.85955967	     -6.93894291	     -2.44151708	      1.43569630	      2.02832635	      9.20052947
      1.43300000	     -0.90882521	     -3.71463023	    -10.91876771	      0.97320732	      0.98838547	      0.29521554	    -16.01222126	      6.80615121	     12.26670485	    -16.45195145	     19.16599508	      0.84536438	      2.70973891	     30.50515100	     -6.94427413	     -6.93257347	     -3.32969645	     12.05425840	     -7.37605605	     -2.36101390	      1.58813405	      1.85727382	      9.33046075
      1.43716667	     -0.93929365	     -3.56308910	    -11.05318008	      0.97920806	      0.98773731	      0.29502368	    -16.17498018	      6.54148616	     12.25531517	    -16.68391467	     18.97036410	      0.89195389	      2.74587463	     30.41595452	     -6.80379779	     -6.78208605	     -3.83252960	     12.30160311	     -7.63330152	     -2.32541789	      1.75414178	      1.67994590	      9.38806575
      1.44133333	     -0.98180669	     -3.40807748	    -11.17054833	      0.98522822	      0.98706148	      0.29476125	    -16.30348924	      6.27201960	     12.17299330	    -16.95195695	     18.80404158	      1.05305836	      2.92580705	     30.31493602	     -6.63683542	     -6.50860565	     -4.26039883	     12.35421411	     -8.16298014	     -2.20387463	      1.91990570	      1.51577754	      9.62790488
      1.44550000	     -1.02148184	     -3.24611151	    -11.28569785	      0.99133219	      0.98640622	      0.29451662	    -16.45071526	      6.00002775	     12.15034639	    -17.18821439	     18.56452055	      1.09628989	      2.95861579	     30.22683773	     -6.47270557	     -6.41690529	     -4.73239033	     12.53451063	     -8.35224335	     -2.17456663	      2.08461695	      1.34240943	      9.65084133
      1.44966667	     -1.05858788	     -3.07759843	    -11.39105893	      0.99746466	      0.98575034	      0.29421800	    -16.56273566	      5.71169963	     12.00737463	    -17.49422203	     18.38290571	      1.30958407	      3.25149061	     30.09669392	     -6.27898239	     -6.17616640	     -5.09530443	     12.46985790	     -8.87375915	     -1.99849379	      2.28665392	      1.15085294	      9.89047661
